<?xml version="1.0" standalone="no"?>
<!DOCTYPE svg PUBLIC "-//W3C//DTD SVG 20010904//EN"
 "http://www.w3.org/TR/2001/REC-SVG-20010904/DTD/svg10.dtd">
<svg version="1.0" xmlns="http://www.w3.org/2000/svg"
 width="16.000000pt" height="16.000000pt" viewBox="0 0 16.000000 16.000000"
 preserveAspectRatio="xMidYMid meet">

<g transform="translate(0.000000,16.000000) scale(0.100000,-0.100000)"
fill="#000000" stroke="none">
<path d="M55 105 c-29 -30 -29 -33 -12 -50 9 -10 17 -14 17 -9 0 6 -6 16 -12
23 -10 10 -8 10 10 0 12 -8 20 -20 17 -26 -2 -7 0 -13 5 -13 10 0 25 20 25 35
0 6 8 9 18 7 26 -4 20 13 -9 26 -14 7 -23 16 -19 21 14 24 -13 14 -40 -14z"/>
</g>
</svg>
